<svg xmlns="http://www.w3.org/2000/svg" height="48" width="48"><rect id="backgroundrect" width="100%" height="100%" x="0" y="0" fill="none" stroke="none"/><g class="currentLayer" style=""><title>Layer 1</title><path d="M0 0h48v48h-48z" fill="none" id="svg_1" class=""/><path d="M30 42h4v-4h-4v4zm8-24h4v-4h-4v4zm-32-8v28c0 2.21 1.79 4 4 4h8v-4h-8v-28h8v-4h-8c-2.21 0-4 1.79-4 4zm32-4v4h4c0-2.21-1.79-4-4-4zm-16 40h4v-44h-4v44zm16-12h4v-4h-4v4zm-8-24h4v-4h-4v4zm8 16h4v-4h-4v4zm0 16c2.21 0 4-1.79 4-4h-4v4z" id="svg_2" class="selected" fill="#ffffff" fill-opacity="1"/></g></svg>